# AST/ASF file generated using VICON BodyLanguage
# -----------------------------------------------
:version 1.10
:name VICON
:units
  mass 1.0
  length 0.45
  angle deg
:documentation
   .ast/.asf automatically generated from VICON data using
   VICON BodyBuilder and BodyLanguage model FoxedUp or BRILLIANT.MOD
:root
   order TX TY TZ RX RY RZ
   axis XYZ
   position 0 0 0  
   orientation 0 -0 0 
:bonedata
  begin
     id 1 
     name lhipjoint
     direction 0.515797 -0.759363 0.396637 
     length 2.47888 
     axis 0 -0 0  XYZ
  end
  begin
     id 2 
     name lfemur
     direction 0.34202 -0.939693 0  
     length 6.81885  
     axis 0 -0 20  XYZ
    dof rx ry rz
    limits (-160.0 20.0)
           (-70.0 70.0)
           (-60.0 70.0)
  end
  begin
     id 3 
     name ltibia
     direction 0.342037 -0.939687 0   
     length 7.89258   
     axis 0 -0 20   XYZ
    dof rx
    limits (-10.0 170.0)
  end
  begin
     id 4 
     name lfoot
     direction 0.173497 -0.476678 0.861787   
     length 2.51543   
     axis -90 -1.13533e-015 20   XYZ
    dof rx rz
    limits (-45.0 90.0)
           (-70.0 20.0)
  end
  begin
     id 5 
     name ltoes
     direction 1.53564e-011 -4.21897e-011 1   
     length 1.21388   
     axis -90 -1.13533e-015 20   XYZ
    dof rx
    limits (-90.0 20.0)
  end
  begin
     id 6 
     name rhipjoint
     direction -0.489454 -0.772941 0.403729   
     length 2.43534  
     axis 0 -0 0  XYZ 
  end
  begin
     id 7 
     name rfemur
     direction -0.34202 -0.939693 0   
     length 7.10357   
     axis 0 -0 -20   XYZ
    dof rx ry rz
    limits (-160.0 20.0)
           (-70.0 70.0)
           (-70.0 60.0)
  end
  begin
     id 8 
     name rtibia
     direction -0.34202 -0.939693 0   
     length 9.16127   
     axis 0 -0 -20   XYZ
    dof rx
    limits (-10.0 170.0)
 end
 begin
     id 9 
     name rfoot
     direction -0.270974 -0.748671 0.605033   
     length 1.74894  
     axis -90 1.13533e-015 -20   XYZ
    dof rx rz
    limits (-45.0 90.0)
           (-20.0 70.0)
  end
  begin
     id 10 
     name rtoes
     direction -1.53557e-011 -4.21759e-011 1   
     length 0.787585   
     axis -90 1.13533e-015 -20   XYZ
    dof rx
    limits (-90.0 20.0)
  end
  begin
     id 11 
     name lowerback
     direction -0.0140249 0.999561 0.0260968   
     length 2.16963   
     axis 0 -0 0   XYZ
    dof rx ry rz
    limits (-20.0 45.0)
           (-30.0 30.0)
           (-30.0 30.0)
  end
  begin
     id 12 
     name upperback
     direction 0.00860018 0.999959 -0.002711   
     length 2.1726   
     axis 0 -0 0   XYZ
    dof rx ry rz
    limits (-20.0 45.0)
           (-30.0 30.0)
           (-30.0 30.0)
  end
  begin
     id 13 
     name thorax
     direction 0.015211 0.999782 -0.0143191   
     length 2.17061   
     axis 0 -0 0   XYZ
    dof rx ry rz
    limits (-20.0 45.0)
           (-30.0 30.0)
           (-30.0 30.0)
  end
  begin
     id 14 
     name lowerneck
     direction -0.0140143 0.999447 0.030145   
     length 2.26749   
     axis 0 -0 0   XYZ
    dof rx ry rz
    limits (-20.0 45.0)
           (-30.0 30.0)
           (-30.0 30.0)
  end
  begin
     id 15 
     name upperneck
     direction 0.118062 0.961438 -0.248392   
     length 2.22728   
     axis 0 -0 0   XYZ
    dof rx ry rz
    limits (-20.0 45.0)
           (-30.0 30.0)
           (-30.0 30.0)
  end
  begin
     id 16
     name head
     direction 0.0431885 0.9954 -0.085514  
     length 2.28786  
     axis 0 -0 0   XYZ
    dof rx ry rz
    limits (-20.0 45.0)
           (-30.0 30.0)
           (-30.0 30.0)
  end
  begin
     id 17 
     name lclavicle
     direction 0.912126 0.409548 0.0172323  
     length 4.31571  
     axis 0 -0 0   XYZ
    dof ry rz
    limits (-20.0 10.0)
           (0.0 20.0)
  end
  begin
     id 18 
     name lhumerus
     direction 1 -4.48977e-011 1.93091e-027   
     length 5.13658   
     axis 180 -30 -90   XYZ
    dof rx ry rz
    limits (-60.0 90.0)
           (-90.0 90.0)
           (-90.0 90.0)
  end
  begin
     id 19
     name lradius
     direction 1 -4.48916e-011 6.84018e-027   
     length 3.22473   
     axis 180 -30 -90   XYZ
    dof rx
    limits (-10.0 170.0)
  end
  begin
     id 20
     name lwrist
     direction 1 -4.48987e-011 7.01981e-027   
     length 1.61236   
     axis -4.37994e-015 90 90   XYZ
    dof ry
    limits (-180.0 0.0)
 end
  begin
     id 21 
     name lhand
     direction 1 -4.49037e-011 1.40335e-026   
     length 0.936406   
     axis -8.96029e-015 90 90   XYZ
    dof rx rz
    limits (-90.0 90.0)
           (-45.0 45.0)
  end
  begin
     id 22 
     name lfingers
     direction 1 -4.48886e-011 2.8104e-026   
     length 0.754955   
     axis -1.79203e-014 90 90   XYZ
    dof rx
    limits (0.0 90.0)
  end
  begin
     id 23
     name lthumb
     direction 0.707107 -6.34937e-011 0.707107   
     length 1.08397   
     axis -90 45 -4.48555e-014   XYZ
    dof rx rz
    limits (-45.0 45.0)
           (-45.0 45.0)
  end
  begin
     id 24 
     name rclavicle
     direction -0.947962 0.317997 0.0156638   
     length 4.86918  
     axis 0 -0 0   XYZ 
    dof ry rz
    limits (-10.0 20.0)
           (-20.0 0.0)
  end
  begin
     id 25 
     name rhumerus
     direction -1 -4.48951e-011 2.80534e-018  
     length 5.60911   
     axis 180 30 90   XYZ
    dof rx ry rz
    limits (-90.0 60.0)
           (-90.0 90.0)
           (-90.0 90.0)
  end
  begin
     id 26 
     name rradius
     direction -1 -4.4898e-011 2.11315e-027   
     length 3.38704   
     axis 180 30 90   XYZ
    dof rx
    limits (-10.0 170.0)
  end
  begin
     id 27 
     name rwrist
     direction -1 -4.48933e-011 7.02314e-027   
     length 1.69352   
     axis -4.37994e-015 -90 -90   XYZ
    dof ry
    limits (-180.0 0.0)
  end
  begin
     id 28
     name rhand
     direction -1 -4.48937e-011 1.40458e-026   
     length 0.755878   
     axis -8.96029e-015 -90 -90   XYZ
    dof rx rz
    limits (-90.0 90.0)
           (-45.0 45.0)
  end
  begin
     id 29
     name rfingers
     direction -1 -4.4901e-011 2.80737e-026   
     length 0.609409   
     axis -1.79203e-014 -90 -90   XYZ
    dof rx
    limits (0.0 90.0)
  end
  begin
     id 30
     name rthumb
     direction -0.707107 -6.34968e-011 0.707107   
     length 0.874992   
     axis -90 -45 4.48555e-014   XYZ
    dof rx rz
    limits (-45.0 45.0)
           (-45.0 45.0)
  end
:hierarchy
  begin
    root lhipjoint rhipjoint lowerback
    lhipjoint lfemur
    lfemur ltibia
    ltibia lfoot
    lfoot ltoes
    rhipjoint rfemur
    rfemur rtibia
    rtibia rfoot
    rfoot rtoes
    lowerback upperback
    upperback thorax
    thorax lowerneck lclavicle rclavicle
    lowerneck upperneck
    upperneck head
    lclavicle lhumerus
    lhumerus lradius
    lradius lwrist
    lwrist lhand lthumb
    lhand lfingers
    rclavicle rhumerus
    rhumerus rradius
    rradius rwrist
    rwrist rhand rthumb
    rhand rfingers
  end

#!OML:ASF C:\ViconDB\ViconDB\414\Spring2016\041811\Spring2016.ASF
:FULLY-SPECIFIED
:DEGREES
70
root 12.9049 18.1251 12.1761 -177.823 -5.44513 -178.181
lowerback 0.282525 1.05877 -1.68117
upperback 0.738237 1.40577 0.366927
thorax 0.54769 0.690126 1.31963
lowerneck -14.7798 2.54437 -3.66984
upperneck 24.3408 0.49566 11.034
head 10.1231 0.732159 4.54254
rclavicle -9.39258e-015 -2.98177e-015
rhumerus -45.2858 -22.7163 -71.9702
rradius 42.4329
rwrist 35.2891
rhand -33.5349 -13.8852
rfingers 7.12502
rthumb -6.73063 -43.7583
lclavicle -9.39258e-015 -2.98177e-015
lhumerus -41.4574 6.20091 78.7534
lradius 24.2768
lwrist -35.3079
lhand -27.8833 15.1528
lfingers 7.12502
lthumb -1.27318 45.1288
rfemur 168.022 46.7056 -168.941
rtibia 28.9661
rfoot -51.5874 -47.3432
rtoes 3.89618e-014
lfemur -10.0079 -8.93123 -12.7612
ltibia 27.2144
lfoot -21.4691 2.04956
ltoes 1.14301e-014
71
root 12.8986 18.1276 12.1706 -177.776 -5.41788 -178.226
lowerback 0.157092 1.02574 -1.75616
upperback 0.727498 1.36463 0.352672
thorax 0.607078 0.66893 1.34941
lowerneck -14.7512 2.6076 -3.59943
upperneck 24.279 0.594115 10.9792
head 10.0877 0.779568 4.51924
rclavicle -3.78685e-014 -1.5704e-014
rhumerus -45.2852 -22.2317 -72.3651
rradius 42.5686
rwrist 35.1385
rhand -33.543 -13.8777
rfingers 7.12502
rthumb -6.73842 -43.7504
lclavicle -3.78685e-014 -1.5704e-014
lhumerus -41.4353 5.72586 78.8074
lradius 24.2838
lwrist -35.0087
lhand -27.829 15.461
lfingers 7.12502
lthumb -1.22079 45.4373
rfemur 168.1 46.5728 -168.959
rtibia 28.9503
rfoot -51.5094 -47.2023
rtoes -2.3059e-014
lfemur -9.95254 -9.0694 -12.8436
ltibia 27.1179
lfoot -21.5095 2.19397
ltoes 3.30976e-014
72
root 12.8915 18.128 12.1681 -177.784 -5.42439 -178.159
lowerback 0.125896 1.00301 -1.68407
upperback 0.724832 1.33481 0.355079
thorax 0.624466 0.654335 1.31203
lowerneck -14.758 2.64765 -3.51114
upperneck 24.2324 0.652838 10.9251
head 10.0688 0.811119 4.4899
rclavicle 2.48481e-015 -5.1684e-015
rhumerus -45.3093 -21.8378 -72.6702
rradius 42.6825
rwrist 35.1139
rhand -33.4933 -13.579
rfingers 7.12502
rthumb -6.69044 -43.4533
lclavicle 2.48481e-015 -5.1684e-015
lhumerus -41.434 5.98627 78.4095
lradius 24.2942
lwrist -35.284
lhand -27.9858 15.3085
lfingers 7.12502
lthumb -1.37219 45.2839
rfemur 168.11 46.5398 -168.905
rtibia 28.9245
rfoot -51.4684 -47.0988
rtoes 4.77083e-015
lfemur -9.87674 -9.09499 -12.7955
ltibia 27.037
lfoot -21.5275 2.19744
ltoes -5.2181e-014
73
root 12.8852 18.1268 12.1607 -177.737 -5.38234 -178.356
lowerback -0.0432948 1.01735 -1.88416
upperback 0.754407 1.35847 0.298679
thorax 0.745581 0.663717 1.37016
lowerneck -14.8455 2.658 -3.56144
upperneck 24.2613 0.659642 11.0023
head 10.0944 0.820968 4.53099
rclavicle -2.48481e-015 2.5842e-015
rhumerus -45.3258 -21.381 -72.9561
rradius 42.7883
rwrist 35.2007
rhand -33.3525 -13.362
rfingers 7.12502
rthumb -6.55447 -43.2406
lclavicle -2.48481e-015 2.5842e-015
lhumerus -41.374 5.98325 78.2232
lradius 24.2927
lwrist -35.642
lhand -28.0754 15.3967
lfingers 7.12502
lthumb -1.45873 45.3714
rfemur 168.151 46.6464 -169.12
rtibia 28.9087
rfoot -51.7163 -47.0008
rtoes 6.36111e-015
lfemur -9.80819 -9.1754 -13.0594
ltibia 26.9777
lfoot -21.5869 2.31531
ltoes -5.96354e-016
74
root 12.8834 18.129 12.1577 -177.706 -5.41843 -178.284
lowerback -0.135643 0.991358 -1.87708
upperback 0.761031 1.32559 0.352384
thorax 0.804275 0.646604 1.42291
lowerneck -14.8825 2.67233 -3.68129
upperneck 24.2081 0.699954 11.0984
head 10.0764 0.84283 4.59049
rclavicle 8.4235e-015 6.55989e-015
rhumerus -45.3322 -21.0122 -73.1567
rradius 42.8279
rwrist 35.7472
rhand -33.3926 -13.287
rfingers 7.12502
rthumb -6.59321 -43.1644
lclavicle 8.4235e-015 6.55989e-015
lhumerus -41.2884 5.68693 78.3162
lradius 24.329
lwrist -35.5429
lhand -28.185 15.6017
lfingers 7.12502
lthumb -1.56455 45.5757
rfemur 168.248 46.4815 -168.998
rtibia 28.8573
rfoot -51.5514 -46.846
rtoes 3.02153e-014
lfemur -9.83172 -9.27278 -12.9828
ltibia 26.9641
lfoot -21.6448 2.38381
ltoes 2.31584e-014
75
root 12.8798 18.1275 12.1523 -177.699 -5.42381 -178.279
lowerback -0.239838 1.00364 -1.86173
upperback 0.771614 1.34432 0.332593
thorax 0.87363 0.655404 1.39637
lowerneck -14.8008 2.6744 -3.55159
upperneck 24.1079 0.724478 10.9536
head 10.0254 0.85084 4.51258
rclavicle 2.05245e-014 3.57812e-015
rhumerus -45.398 -20.7972 -73.3417
rradius 42.8744
rwrist 36.0985
rhand -33.2916 -13.0486
rfingers 7.12502
rthumb -6.4957 -42.9289
lclavicle 2.05245e-014 3.57812e-015
lhumerus -41.2666 5.78769 78.0519
lradius 24.4863
lwrist -35.4505
lhand -28.374 15.6502
lfingers 7.12502
lthumb -1.74714 45.6228
rfemur 168.242 46.6034 -169.001
rtibia 28.8287
rfoot -51.5904 -46.9333
rtoes 3.73715e-014
lfemur -9.79552 -9.30752 -12.9951
ltibia 26.9419
lfoot -21.684 2.40029
ltoes -3.50855e-014
76
root 12.8796 18.1286 12.1464 -177.726 -5.44549 -178.156
lowerback -0.330586 1.01452 -1.78579
upperback 0.797473 1.35981 0.374174
thorax 0.951139 0.662554 1.39869
lowerneck -14.7913 2.66776 -3.56555
upperneck 24.0687 0.719824 10.9745
head 10.0097 0.850443 4.52024
rclavicle -1.10325e-014 -9.54166e-015
rhumerus -45.4456 -20.4984 -73.5135
rradius 42.8554
rwrist 36.4222
rhand -33.4366 -12.8359
rfingers 7.12502
rthumb -6.63567 -42.7119
lclavicle -1.10325e-014 -9.54166e-015
lhumerus -41.2058 5.68468 77.91
lradius 24.5765
lwrist -35.5918
lhand -28.6839 15.7123
lfingers 7.12502
lthumb -2.04644 45.6822
rfemur 168.232 46.7354 -168.888
rtibia 28.7797
rfoot -51.7821 -46.8245
rtoes 7.23576e-014
lfemur -9.74407 -9.36343 -12.8623
ltibia 26.9431
lfoot -21.7323 2.40846
ltoes -7.25564e-015
77
root 12.8759 18.1275 12.1427 -177.676 -5.45339 -178.263
lowerback -0.448455 1.02189 -1.91585
upperback 0.799621 1.37358 0.358089
thorax 1.01635 0.667916 1.45764
lowerneck -14.7863 2.67468 -3.60031
upperneck 24.0637 0.724668 11.0269
head 10.0056 0.85491 4.54536
rclavicle 3.93842e-014 5.1684e-015
rhumerus -45.4901 -20.3751 -73.5568
rradius 42.7596
rwrist 37.1091
rhand -33.3878 -12.7182
rfingers 7.12502
rthumb -6.58863 -42.5957
lclavicle 3.93842e-014 5.1684e-015
lhumerus -41.1761 5.28388 77.9764
lradius 24.7751
lwrist -35.1249
lhand -28.8445 15.9118
lfingers 7.12502
lthumb -2.20157 45.8802
rfemur 168.325 46.9256 -168.96
rtibia 28.7588
rfoot -52.1311 -46.7516
rtoes -1.04163e-013
lfemur -9.76529 -9.39507 -13.0008
ltibia 26.9419
lfoot -21.7718 2.46766
ltoes -2.11706e-014
